{"title":"Screamers.The.Hunting.2009.DVDRIP-ZEKTORM","uid":4690620,"size":753805547,"categoryP":"video","categoryS":"movies","magnet":"?xt=urn:btih:b7d590fbeeac142296602deec2aa44620c66c18c&amp;dn=Screamers.The.Hunting.2009.DVDRIP-ZEKTORM&amp;tr=udp%3A%2F%2Ftracker.openbittorrent.com%3A80&amp;tr=udp%3A%2F%2Fopen.demonii.com%3A1337&amp;tr=udp%3A%2F%2Ftracker.coppersurfer.tk%3A6969&amp;tr=udp%3A%2F%2Fexodus.desync.com%3A6969","seeders":1,"leechers":0,"uploader":"blowley","files":4,"time":1233386097,"description":"Title                            : Screamers: The Hunting\nYear                             : 2009\nGenre                            : Sci-Fi | Thriller \niMDB URL                         : http://www.imdb.com/title/tt1214983/\n\nComplete name                    : Screamers.The.Hunting.2009.DVDRIP-ZEKTORM.mp4\nFormat                           : MPEG-4\nFormat profile                   : Base Media\nCodec ID                         : isom\nFile size                        : 700 MiB\nDuration                         : 1h 34mn\nOverall bit rate                 : 1032 Kbps\nSubtitles                        : English, Spanish, Portuguese, Thai, Chinese, Korean (Format: VobSub)\nSource                           : DVD NTSC\nEncoded date                     : UTC 2009-01-30 00:49:00\n\nVideo\nFormat                           : AVC\nFormat/Info                      : Advanced Video Codec\nFormat profile                   : &lt;a class=&quot;__cf_email__&quot; href=&quot;/cdn-cgi/l/email-protection&quot; data-cfemail=&quot;642c0d030c2428504a55&quot;&gt;[email&amp;#160;protected]&lt;/a&gt;&lt;script cf-hash='f9e31' type=&quot;text/javascript&quot;&gt;\n/* &lt;![CDATA[ */!function(){try{var t=&quot;currentScript&quot;in document?document.currentScript:function(){for(var t=document.getElementsByTagName(&quot;script&quot;),e=t.length;e--;)if(t[e].getAttribute(&quot;cf-hash&quot;))return t[e]}();if(t&amp;&amp;t.previousSibling){var e,r,n,i,c=t.previousSibling,a=c.getAttribute(&quot;data-cfemail&quot;);if(a){for(e=&quot;&quot;,r=parseInt(a.substr(0,2),16),n=2;a.length-n;n+=2)i=parseInt(a.substr(n,2),16)^r,e+=String.fromCharCode(i);e=document.createTextNode(e),c.parentNode.replaceChild(e,c)}}}catch(u){}}();/* ]]&gt; */&lt;/script&gt;\nFormat settings, CABAC           : Yes\nFormat settings, ReFrames        : 10 frames\nCodec ID                         : avc1\nCodec ID/Info                    : Advanced Video Coding\nDuration                         : 1h 34mn\nBit rate mode                    : Variable\nBit rate                         : 944 Kbps\nMaximum bit rate                 : 6600 Kbps\nWidth                            : 720 pixels\nHeight                           : 480 pixels\nDisplay aspect ratio             : 16/9\nFrame rate mode                  : Constant\nFrame rate                       : 23.976 fps\nStandard                         : NTSC\nResolution                       : 24 bits\nColorimetry                      : 4:2:0\nScan type                        : Progressive\nBits/(Pixel*Frame)               : 0.114\nStream size                      : 640 MiB (91%)\nTitle                            : Video\nWriting library                  : x264 core 60 r900 a9af942\n\nAudio\nFormat                           : AAC\nFormat/Info                      : Advanced Audio Codec\nFormat version                   : Version 4\nFormat profile                   : LC\nFormat settings, SBR             : Yes\nFormat settings, PS              : No\nCodec ID                         : 40\nDuration                         : 1h 34mn\nBit rate mode                    : Variable\nBit rate                         : 85.3 Kbps\nMaximum bit rate                 : 111 Kbps\nChannel(s)                       : 2 channels\nChannel positions                : L R\nSampling rate                    : 48.0 KHz\nResolution                       : 16 bits\nStream size                      : 57.8 MiB (8%)\nTitle                            : English\nLanguage                         : English\n\nNotes                            : Convert to DVD with Nero\n","torrent":{"xt":"urn:btih:b7d590fbeeac142296602deec2aa44620c66c18c","amp;dn":"Screamers.The.Hunting.2009.DVDRIP-ZEKTORM","amp;tr":["udp%3A%2F%2Ftracker.openbittorrent.com%3A80","udp%3A%2F%2Fopen.demonii.com%3A1337","udp%3A%2F%2Ftracker.coppersurfer.tk%3A6969","udp%3A%2F%2Fexodus.desync.com%3A6969"],"infoHash":"b7d590fbeeac142296602deec2aa44620c66c18c","infoHashBuffer":{"type":"Buffer","data":[183,213,144,251,238,172,20,34,150,96,45,238,194,170,68,98,12,102,193,140]},"announce":[],"urlList":[]}}